<svg width="67" height="13" viewBox="0 0 67 13" fill="none" xmlns="http://www.w3.org/2000/svg">
<path d="M1.25 8H2.25C2.80228 8 3.25 8.44772 3.25 9V11C3.25 11.5523 2.80228 12 2.25 12H1.25C0.697715 12 0.25 11.5523 0.25 11V9C0.25 8.44772 0.697715 8 1.25 8Z" fill="white"/>
<path d="M5.75 6H6.75C7.30228 6 7.75 6.44772 7.75 7V11C7.75 11.5523 7.30228 12 6.75 12H5.75C5.19772 12 4.75 11.5523 4.75 11V7C4.75 6.44772 5.19772 6 5.75 6Z" fill="white"/>
<path d="M10.25 4H11.25C11.8023 4 12.25 4.42981 12.25 4.96V11.04C12.25 11.5702 11.8023 12 11.25 12H10.25C9.69772 12 9.25 11.5702 9.25 11.04V4.96C9.25 4.42981 9.69772 4 10.25 4Z" fill="white"/>
<path d="M14.75 1H15.75C16.3023 1 16.75 1.46171 16.75 2.03125V10.9688C16.75 11.5383 16.3023 12 15.75 12H14.75C14.1977 12 13.75 11.5383 13.75 10.9688V2.03125C13.75 1.46171 14.1977 1 14.75 1V1Z" fill="white" fill-opacity="0.2"/>
<path fill-rule="evenodd" clip-rule="evenodd" d="M29.2504 3.28448C31.4268 3.28457 33.5199 4.13869 35.0972 5.67028C35.216 5.78852 35.4059 5.78703 35.5228 5.66693L36.6582 4.4966C36.7175 4.43569 36.7505 4.35318 36.75 4.26733C36.7495 4.18148 36.7155 4.09937 36.6556 4.03917C32.5157 -0.0130576 25.9845 -0.0130576 21.8446 4.03917C21.7846 4.09933 21.7506 4.18141 21.75 4.26726C21.7495 4.35311 21.7824 4.43565 21.8416 4.4966L22.9773 5.66693C23.0942 5.78721 23.2842 5.78871 23.4029 5.67028C24.9804 4.13859 27.0738 3.28447 29.2504 3.28448ZM29.2505 7.09202C30.4462 7.09194 31.5993 7.5459 32.4857 8.36567C32.6056 8.48201 32.7944 8.47949 32.9113 8.35999L34.0454 7.18966C34.1051 7.12827 34.1382 7.04499 34.1374 6.95846C34.1365 6.87192 34.1017 6.78935 34.0408 6.72921C31.3416 4.16481 27.1616 4.16481 24.4624 6.72921C24.4014 6.78935 24.3666 6.87196 24.3658 6.95852C24.365 7.04509 24.3983 7.12836 24.4581 7.18966L25.5919 8.35999C25.7088 8.47949 25.8976 8.48201 26.0175 8.36567C26.9033 7.54644 28.0555 7.09252 29.2505 7.09202ZM31.5222 9.65389C31.5239 9.74067 31.4905 9.82433 31.4298 9.88513L29.4681 11.9071C29.4106 11.9665 29.3322 12 29.2504 12C29.1686 12 29.0902 11.9665 29.0327 11.9071L27.0707 9.88513C27.01 9.82429 26.9767 9.7406 26.9785 9.65382C26.9803 9.56704 27.0171 9.48486 27.0801 9.42669C28.333 8.34442 30.1678 8.34442 31.4207 9.42669C31.4837 9.48491 31.5204 9.56711 31.5222 9.65389Z" fill="white"/>
<rect x="42.25" y="1" width="21.6077" height="11" rx="2.16667" stroke="white" stroke-opacity="0.6"/>
<path d="M65.3853 4.38232V8.61762C66.2122 8.25891 66.75 7.42447 66.75 6.49997C66.75 5.57548 66.2122 4.74103 65.3853 4.38232Z" fill="white" fill-opacity="0.6"/>
<rect x="43.8053" y="2.61768" width="18.4972" height="7.76471" rx="1.33333" fill="white"/>
</svg>
